<svg height="405pt" viewBox="-121 0 405 405.59957" width="405pt" xmlns="http://www.w3.org/2000/svg"><path d="m27.605469 159.839844h109.226562v204.800781h-109.226562zm0 0" fill="#94c1ff"/><g fill="#0e65e5"><path d="m143.660156 371.464844h-122.878906v-218.453125h122.878906zm-109.226562-13.652344h95.574218v-191.144531h-95.574218zm0 0"/><path d="m27.605469 330.507812h109.226562v34.132813h-109.226562zm0 0"/><path d="m136.832031 371.464844h-109.226562c-3.765625 0-6.824219-3.054688-6.824219-6.824219v-34.132813c0-3.773437 3.058594-6.828124 6.824219-6.828124h109.226562c3.769531 0 6.828125 3.054687 6.828125 6.828124v34.132813c0 3.773437-3.058594 6.824219-6.828125 6.824219zm-102.398437-13.652344h95.574218v-20.480469h-95.574218zm0 0"/></g><path d="m7.125 364.640625h150.1875v34.132813h-150.1875zm0 0" fill="#5c9eff"/><path d="m164.140625 405.597656h-163.839844v-47.785156h163.839844zm-150.1875-13.652344h136.535156v-20.480468h-136.535156zm0 0" fill="#0e65e5"/><path d="m82.21875 9.652344c-26.222656 26.226562-40.957031 61.796875-40.957031 98.886718v51.300782h81.917969v-51.300782c0-37.085937-14.734376-72.65625-40.960938-98.886718zm0 0" fill="#5c9eff"/><path d="m130.007812 166.667969h-95.574218v-58.128907c0-39.179687 15.257812-76.011718 42.960937-103.710937l4.824219-4.828125 4.828125 4.828125c27.703125 27.699219 42.960937 64.53125 42.960937 103.710937zm-81.921874-13.65625h68.265624v-44.472657c0-33.1875-12.066406-64.511718-34.132812-88.976562-22.0625 24.464844-34.132812 55.792969-34.132812 88.976562zm0 0" fill="#0e65e5"/><path d="m109.527344 344.160156c-3.769532 0-6.828125-3.054687-6.828125-6.828125v-27.304687c0-3.773438 3.058593-6.828125 6.828125-6.828125 3.765625 0 6.824218 3.054687 6.824218 6.828125v27.304687c0 3.777344-3.058593 6.828125-6.824218 6.828125zm0 0" fill="#fff"/><path d="m123.179688 330.507812h-27.304688c-3.769531 0-6.828125-3.054687-6.828125-6.828124 0-3.773438 3.058594-6.828126 6.828125-6.828126h27.304688c3.769531 0 6.828124 3.054688 6.828124 6.828126 0 3.773437-3.058593 6.828124-6.828124 6.828124zm0 0" fill="#fff"/><path d="m48.085938 234.933594c-3.769532 0-6.824219-3.054688-6.824219-6.828125v-47.785157c0-3.773437 3.054687-6.828124 6.824219-6.828124 3.769531 0 6.828124 3.054687 6.828124 6.828124v47.785157c0 3.777343-3.058593 6.828125-6.828124 6.828125zm0 0" fill="#fff"/></svg>